# xmcd
#
# Track frame offsets:
#	150
#	36066
#	59931
#	83922
#	99874
#	123011
#	132777
#	150261
#	167286
#	179442
#	204777
#	217243
#	226706
#	248813
#	286819
#
# Disc length: 4438 seconds
#
# Revision: 0
# Processed by: cddbd v1.5.2PL0 Copyright (c) Steve Scherf et al.
# Submitted via: EasyCDDAExtractor 12.0.1.1
#
DISCID=bb11540f
DTITLE=Various Artist - BAG Krems Konzertwertung 2010
DYEAR=2010
DGENRE=Blasmusik
TTITLE0=Stadtkapelle Traismauer - Die Fahrt ins Blaue
TTITLE1=Trachtenmusikkapelle Schönbühel - Jubelfestmarsch
TTITLE2=Trachtenmusikkapelle Schönbühel - A Klezmer Karnival
TTITLE3=Musikverein Sitzenberg-Reidling - Cumberland Cross
TTITLE4=Musikverein Sitzenberg-Reidling - Dorffest
TTITLE5=Musikverein Arnsdorf - Herz Europas
TTITLE6=Musikverein Arnsdorf - Little Bridge
TTITLE7=Musikverein Etsdorf Haizendorf - Cumberland Cross
TTITLE8=Musikverein Etsdorf Haizendorf - Sperl Polka
TTITLE9=Trachtenkapelle Gedersdorf - Klingendes Land
TTITLE10=Trachtenkapelle Gedersdorf - Fascinating Drumms
TTITLE11=Musikverein Hadersdorf - Herz Europas
TTITLE12=Musikverein Hadersdorf - Spirit of Musik
TTITLE13=Trachtenkapelle Rosatz - Das Feenreich
TTITLE14=Trachtenkapelle Rosatz - Alpinsaga
EXTD=
EXTT0=
EXTT1=
EXTT2=
EXTT3=
EXTT4=
EXTT5=
EXTT6=
EXTT7=
EXTT8=
EXTT9=
EXTT10=
EXTT11=
EXTT12=
EXTT13=
EXTT14=
PLAYORDER=
